<svg xmlns="http://www.w3.org/2000/svg" width="840" height="156" font-family="-apple-system,BlinkMacSystemFont,&quot;Segoe UI&quot;,Helvetica,Arial,sans-serif" font-size="16"><g text-anchor="end" font-weight="500"><text alignment-baseline="central" x="312" y="68" dx="-10">@web-alchemy/markdown-wasm</text><text alignment-baseline="central" x="312" y="104" dx="-10">rsms/markdown-wasm</text></g><path fill="#4e79a7" d="M312 52h512v32H312z"/><path fill="#f28e2c" d="M312 88h495.497v32H312z"/><g fill="#fff" text-anchor="end" font-weight="500"><text x="824" y="68" alignment-baseline="central" dx="-5">183,340</text><text x="807.497" y="104" alignment-baseline="central" dx="-5">177,430</text></g><g fill="none" font-size="12.8" text-anchor="middle" opacity=".5"><g class="tick"><path stroke="currentColor" d="M312.5 48v-6"/><text fill="currentColor" y="-9" dy="0em" transform="translate(312.5 48)">0</text></g><g class="tick"><path stroke="currentColor" d="M368.353 48v-6"/><text fill="currentColor" y="-9" dy="0em" transform="translate(368.353 48)">20,000</text></g><g class="tick"><path stroke="currentColor" d="M424.205 48v-6"/><text fill="currentColor" y="-9" dy="0em" transform="translate(424.205 48)">40,000</text></g><g class="tick"><path stroke="currentColor" d="M480.058 48v-6"/><text fill="currentColor" y="-9" dy="0em" transform="translate(480.058 48)">60,000</text></g><g class="tick"><path stroke="currentColor" d="M535.91 48v-6"/><text fill="currentColor" y="-9" dy="0em" transform="translate(535.91 48)">80,000</text></g><g class="tick"><path stroke="currentColor" d="M591.763 48v-6"/><text fill="currentColor" y="-9" dy="0em" transform="translate(591.763 48)">100,000</text></g><g class="tick"><path stroke="currentColor" d="M647.616 48v-6"/><text fill="currentColor" y="-9" dy="0em" transform="translate(647.616 48)">120,000</text></g><g class="tick"><path stroke="currentColor" d="M703.468 48v-6"/><text fill="currentColor" y="-9" dy="0em" transform="translate(703.468 48)">140,000</text></g><g class="tick"><path stroke="currentColor" d="M759.321 48v-6"/><text fill="currentColor" y="-9" dy="0em" transform="translate(759.321 48)">160,000</text></g><g class="tick"><path stroke="currentColor" d="M815.174 48v-6"/><text fill="currentColor" y="-9" dy="0em" transform="translate(815.174 48)">180,000</text></g></g></svg>